<!DOCTYPE svg PUBLIC "-//W3C//DTD SVG 1.1//EN" "http://www.w3.org/Graphics/SVG/1.1/DTD/svg11.dtd">
<!-- Uploaded to: SVG Repo, www.svgrepo.com, Transformed by: SVG Repo Mixer Tools -->
<svg width="64px" height="64px" viewBox="-179.2 -179.2 870.40 870.40" version="1.1" xmlns="http://www.w3.org/2000/svg" xmlns:xlink="http://www.w3.org/1999/xlink" fill="" stroke="">
<g id="SVGRepo_bgCarrier" stroke-width="0">
<rect x="-179.2" y="-179.2" width="870.40" height="870.40" rx="435.2" fill="#DEEBFF" strokewidth="0"/>
</g>
<g id="SVGRepo_tracerCarrier" stroke-linecap="round" stroke-linejoin="round"/>
<g id="SVGRepo_iconCarrier"> <title>heart-filled</title> <g id="Page-1" stroke="none" stroke-width="1" fill="none" fill-rule="evenodd"> <g id="add" fill="#0065FC" transform="translate(64.000000, 64.000000)"> <path d="M277.333333,1.42108547e-14 C336.243707,1.42108547e-14 384,47.7562934 384,106.666667 C384,128.680222 377.331511,149.136268 365.904398,166.124941 L362.666667,170.666667 L192,405.333333 L21.3333333,170.666667 L20.0724678,168.963675 C7.4412507,151.436859 1.42108547e-14,129.920761 1.42108547e-14,106.666667 C1.42108547e-14,47.7562934 47.7562934,1.42108547e-14 106.666667,1.42108547e-14 C141.562252,1.42108547e-14 172.544105,16.7566826 192.004698,42.6625209 C211.455895,16.7566826 242.437748,1.42108547e-14 277.333333,1.42108547e-14 Z" id="Combined-Shape"> </path> </g> </g> </g>
</svg>